<?xml version="1.0" encoding="utf-8"?>
<!-- Generated by IcoMoon.io -->
<!DOCTYPE svg PUBLIC "-//W3C//DTD SVG 1.1//EN" "http://www.w3.org/Graphics/SVG/1.1/DTD/svg11.dtd">
<svg version="1.1" xmlns="http://www.w3.org/2000/svg" xmlns:xlink="http://www.w3.org/1999/xlink" width="32" height="32" viewBox="0 0 32 32">
<path fill="#444444" d="M30.8 15.1c0.6-0.7 1.4-1.6 1.2-2.6-0.5-2.1-3-2.6-4.7-1.6-1.8 1-2.3 3.3-3.3 4.9-0.5 0.8-1.5 1.5-2.4 1.1-1.1-0.4-1.7-2.3-2.2-3.2-1.6-3.3-2.6-6.8-4.1-10.1-0.7-1.6-1.9-4.5-4.1-3.1-1.3 0.8-1 2.1-0.6 3.4 0.9 2.7 2 5.3 3.1 7.9 0.3 0.8 1.8 3.1 0.6 3.7-0.4 0.2-0.8-0.1-1-0.3l-2.1-1.7-3.8-3.3c-1-0.9-1.9-2-3.1-2.8-1.3-1-2.8-1.5-4 0.1-1.1 1.5 1 3.2 1.9 4.2 3 3.1 6.6 5.5 10 8 1.4 1 3.3 3.2 1.2 4.6l-1.2 0.4c0.2 0.6 0.8 1.2 0.7 1.9-0.1 0.8-1.4 1.1-0.8 2 1.4 2.2 4.6 3.7 7.1 3.1 1.2-0.3 2-1.2 3.1-1.6 1.3-0.6 3-0.7 3.8-2 0.9-1.4 1-2.8 1-4.3 0.1-0.3 0.1-0.6 0-0.9 0-1.3 0-2.7 0.5-4 0.8-1.5 2-2.5 3.2-3.8zM13.1 22.7v0.1c0.1-0.2 0.1-0.3 0-0.5 0-0.4-0.2-0.7-0.5-1.1-0.5-0.5-1.2-0.8-1.8-1.1-1.5-0.7-3.7-2.6-5.4-2.2-0.8 0.2-1.3 1-1.3 1.7 0-0.1 0-0.1-0.1-0.2v0.6c0-0.1 0-0.1 0.1-0.2 0 0.4 0.1 0.8 0.4 1.1 0.5 0.5 1.3 0.9 1.9 1.2l3.4 1.7c0.6 0.3 1.3 0.6 2 0.4 0.7-0.1 1.2-0.8 1.3-1.5zM10.9 25.1c-0.6-0.5-1.2-0.5-1.9-0.7-1.3-0.5-2.8-1.9-4.3-1.5-1.4 0.4-0.9 2.2-0.1 2.8 1.5 1.2 4.2 2.4 6.2 1.7 1.2-0.3 0.9-1.6 0.1-2.3z"></path>
</svg>
